<svg xmlns="http://www.w3.org/2000/svg" viewBox="0 0 64 64" width="64" height="64">
  <!-- Baby stroller / pram icon -->
  <!-- Hood -->
  <path d="M18 18 C18 8, 38 4, 42 14 L42 28 L18 28 Z" fill="#f48fb1" stroke="#c2185b" stroke-width="2" stroke-linejoin="round"/>
  <!-- Hood stripes -->
  <path d="M24 10 C26 7, 34 6, 38 10" fill="none" stroke="#c2185b" stroke-width="1.2" opacity="0.4"/>
  <path d="M21 15 C24 11, 36 9, 40 14" fill="none" stroke="#c2185b" stroke-width="1.2" opacity="0.3"/>
  <!-- Body -->
  <rect x="14" y="28" width="32" height="14" rx="4" fill="#64b5f6" stroke="#1565c0" stroke-width="2"/>
  <!-- Body detail line -->
  <line x1="18" y1="35" x2="42" y2="35" stroke="#1565c0" stroke-width="1" opacity="0.3"/>
  <!-- Handle -->
  <path d="M44 16 L50 16 L50 34" fill="none" stroke="#5d4037" stroke-width="3" stroke-linecap="round" stroke-linejoin="round"/>
  <!-- Handle grip -->
  <circle cx="50" cy="15" r="2.5" fill="#8d6e63" stroke="#5d4037" stroke-width="1.5"/>
  <!-- Wheels -->
  <circle cx="20" cy="48" r="6" fill="#e0e0e0" stroke="#616161" stroke-width="2"/>
  <circle cx="20" cy="48" r="2" fill="#616161"/>
  <circle cx="42" cy="48" r="6" fill="#e0e0e0" stroke="#616161" stroke-width="2"/>
  <circle cx="42" cy="48" r="2" fill="#616161"/>
  <!-- Axle -->
  <line x1="14" y1="42" x2="20" y2="48" stroke="#616161" stroke-width="2" stroke-linecap="round"/>
  <line x1="46" y1="42" x2="42" y2="48" stroke="#616161" stroke-width="2" stroke-linecap="round"/>
</svg>
