<svg width="18" height="18" viewBox="0 0 18 18" fill="none" xmlns="http://www.w3.org/2000/svg">
<mask id="path-1-inside-1_26_120" fill="white">
<path d="M0.825842 0H2.84037C3.65977 0 4.39629 0.499821 4.69894 1.26128L5.75955 3.92973C6.06221 4.69119 6.79872 5.19101 7.61813 5.19101H15.328C16.663 5.19101 17.6232 6.47385 17.247 7.75466L16.3388 10.8464C16.1303 11.5563 15.547 12.093 14.8222 12.2419L8.05772 13.631C7.04122 13.8397 6.03392 13.2364 5.73828 12.2417L2.7914 2.32639C2.67245 1.92614 2.30455 1.65169 1.887 1.65169H0.825842C0.369742 1.65169 0 1.28194 0 0.825843C0 0.369743 0.369742 0 0.825842 0Z"/>
</mask>
<path d="M2.7914 2.32639L-5.83564 4.8904L-5.83564 4.8904L2.7914 2.32639ZM5.73828 12.2417L14.3653 9.67766L14.3653 9.67766L5.73828 12.2417ZM8.05772 13.631L6.24729 4.81498L6.24728 4.81498L8.05772 13.631ZM14.8222 12.2419L16.6327 21.0579L16.6327 21.0579L14.8222 12.2419ZM16.3388 10.8464L7.70365 8.30998L7.70365 8.30999L16.3388 10.8464ZM17.247 7.75466L8.61179 5.21824L8.61179 5.21824L17.247 7.75466ZM5.75955 3.92973L-2.60403 7.25395L-2.60403 7.25395L5.75955 3.92973ZM4.69894 1.26128L13.0625 -2.06294L13.0625 -2.06294L4.69894 1.26128ZM2.84037 -9H0.825842V9H2.84037V-9ZM0.825842 10.6517H1.887V-7.34831H0.825842V10.6517ZM-5.83564 4.8904L-2.88876 14.8057L14.3653 9.67766L11.4184 -0.237618L-5.83564 4.8904ZM9.86815 22.447L16.6327 21.0579L13.0118 3.42584L6.24729 4.81498L9.86815 22.447ZM24.974 13.3828L25.8822 10.2911L8.61179 5.21824L7.70365 8.30998L24.974 13.3828ZM15.328 -3.80899H7.61813V14.191H15.328V-3.80899ZM14.1231 0.605504L13.0625 -2.06294L-3.66464 4.58551L-2.60403 7.25395L14.1231 0.605504ZM7.61813 -3.80899C10.4861 -3.80899 13.0638 -2.05961 14.1231 0.605502L-2.60403 7.25395C-0.939433 11.442 3.11139 14.191 7.61813 14.191V-3.80899ZM25.8822 10.2911C27.9513 3.2466 22.6701 -3.80899 15.328 -3.80899V14.191C10.6559 14.191 7.29504 9.7011 8.61179 5.21824L25.8822 10.2911ZM16.6327 21.0579C20.6187 20.2393 23.8272 17.2871 24.974 13.3828L7.70365 8.30999C8.43344 5.82542 10.4752 3.94674 13.0118 3.42584L16.6327 21.0579ZM-2.88876 14.8057C-1.26278 20.2766 4.2774 23.5951 9.86816 22.447L6.24728 4.81498C9.80505 4.08436 13.3306 6.19618 14.3653 9.67766L-2.88876 14.8057ZM1.887 10.6517C-1.67846 10.6517 -4.81988 8.30811 -5.83564 4.8904L11.4184 -0.237617C10.1648 -4.45583 6.28757 -7.34831 1.887 -7.34831V10.6517ZM-9 0.825843C-9 6.2525 -4.60082 10.6517 0.825842 10.6517V-7.34831C5.34031 -7.34831 9 -3.68862 9 0.825843H-9ZM0.825842 -9C-4.60083 -9 -9 -4.60081 -9 0.825843H9C9 5.3403 5.34031 9 0.825842 9V-9ZM2.84037 9C-0.027552 9 -2.60535 7.25063 -3.66464 4.58551L13.0625 -2.06294C11.3979 -6.25098 7.3471 -9 2.84037 -9V9Z" fill="#2A68A7" mask="url(#path-1-inside-1_26_120)"/>
<circle cx="8.5" cy="16.5" r="1.5" fill="#2A68A7"/>
<circle cx="13.5" cy="16.5" r="1.5" fill="#2A68A7"/>
</svg>
