<svg width="56" height="56" viewBox="0 0 56 56" fill="none" xmlns="http://www.w3.org/2000/svg">
<circle cx="28" cy="28" r="28" fill="white"/>
<path d="M20.9891 25.1699C20.1291 24.0897 18.5563 23.9111 17.4761 24.7711C16.3959 25.6311 16.2174 27.2039 17.0774 28.2841L20.9891 25.1699ZM27.184 36.9649L25.2282 38.522C25.742 39.1674 26.5411 39.5178 27.3639 39.4584C28.1867 39.3991 28.9272 38.9377 29.3431 38.2252L27.184 36.9649ZM39.9418 20.0685C40.6379 18.8761 40.2355 17.3451 39.043 16.6491C37.8506 15.953 36.3197 16.3554 35.6237 17.5478L39.9418 20.0685ZM17.0774 28.2841L25.2282 38.522L29.1399 35.4078L20.9891 25.1699L17.0774 28.2841ZM29.3431 38.2252L39.9418 20.0685L35.6237 17.5478L25.0249 35.7046L29.3431 38.2252Z" fill="#3180D1"/>
</svg>
